<?xml version="1.0" encoding="UTF-8" standalone="no"?>
<!-- Created with Inkscape (http://www.inkscape.org/) -->

<svg
   xmlns:dc="http://purl.org/dc/elements/1.1/"
   xmlns:cc="http://creativecommons.org/ns#"
   xmlns:rdf="http://www.w3.org/1999/02/22-rdf-syntax-ns#"
   xmlns:svg="http://www.w3.org/2000/svg"
   xmlns="http://www.w3.org/2000/svg"
   xmlns:sodipodi="http://sodipodi.sourceforge.net/DTD/sodipodi-0.dtd"
   xmlns:inkscape="http://www.inkscape.org/namespaces/inkscape"
   width="480"
   height="300"
   id="svg2"
   version="1.1"
   inkscape:version="0.48.3.1 r9886"
   sodipodi:docname="logo.svg"
   inkscape:export-filename="/home/cichy/coursera/startup/logo.png"
   inkscape:export-xdpi="90"
   inkscape:export-ydpi="90">
  <defs
     id="defs4" />
  <sodipodi:namedview
     id="base"
     pagecolor="#ffffff"
     bordercolor="#666666"
     borderopacity="1.0"
     inkscape:pageopacity="0.0"
     inkscape:pageshadow="2"
     inkscape:zoom="1"
     inkscape:cx="361.80452"
     inkscape:cy="-51.548967"
     inkscape:document-units="px"
     inkscape:current-layer="layer1"
     showgrid="false"
     inkscape:window-width="1280"
     inkscape:window-height="1004"
     inkscape:window-x="1277"
     inkscape:window-y="-3"
     inkscape:window-maximized="1" />
  <metadata
     id="metadata7">
    <rdf:RDF>
      <cc:Work
         rdf:about="">
        <dc:format>image/svg+xml</dc:format>
        <dc:type
           rdf:resource="http://purl.org/dc/dcmitype/StillImage" />
        <dc:title></dc:title>
      </cc:Work>
    </rdf:RDF>
  </metadata>
  <g
     inkscape:label="Layer 1"
     inkscape:groupmode="layer"
     id="layer1"
     transform="translate(0,-752.36218)">
    <path
       style="fill:#000000"
       d="m 23.667218,834.56792 c -59.25343,225.34348 -29.6267157,112.67172 0,0 z m 192.106902,128.955 0,-11.62502 -13.52491,0 c -7.43871,0 -13.52301,-0.22418 -13.52066,-0.4982 0.002,-0.27402 0.58007,-3.9359 1.28382,-8.1375 0.70375,-4.20161 1.28147,-7.71402 1.28382,-7.80536 0.002,-0.0914 2.73652,-0.16607 6.07593,-0.16607 9.51443,0 8.74134,3.19672 8.74134,-36.14534 0,-29.10525 -0.11387,-32.81244 -1.05023,-34.19131 -1.64078,-2.41616 -4.77648,-3.39907 -10.84388,-3.39907 l -5.49506,0 0,-7.30715 0,-7.30713 13.52492,0 13.52491,0 0,-11.29286 0,-11.29286 6.76246,0 6.76246,0 0,10.96071 0,10.96071 5.47436,0 5.47438,0 0,-10.96071 0,-10.96071 6.76246,0 6.76246,0 0,11.26276 0,11.26275 2.41516,0.37656 c 13.07567,2.03861 20.20062,4.99637 24.8306,10.30788 8.56117,9.82136 6.98519,27.52306 -3.06144,34.38682 l -2.90526,1.98486 3.72201,1.39976 c 10.72026,4.03165 15.58684,11.3176 15.56415,23.30168 -0.0186,9.83052 -2.85684,17.5868 -8.38832,22.92347 -5.54822,5.35281 -13.34518,8.33284 -25.49,9.74239 l -6.6869,0.7761 0,11.53391 0,11.53392 -6.76246,0 -6.76246,0 0,-11.20256 0,-11.20256 -2.98809,-0.42244 c -1.64346,-0.23233 -4.10692,-0.42245 -5.47438,-0.42245 l -2.48627,0 0,11.62502 0,11.62499 -6.76246,0 -6.76246,0 z m 35.84877,-29.21933 c 6.67615,-1.30557 11.56514,-3.91655 13.98599,-7.46926 1.57844,-2.31643 1.90285,-3.44914 1.90009,-6.63451 -0.008,-9.34357 -6.90331,-14.17377 -22.05201,-15.44782 -3.68808,-0.31017 -8.83238,-0.39805 -11.43177,-0.19528 l -4.72615,0.36867 0,15.18269 0,15.18269 8.63793,0 c 4.94825,0 10.79418,-0.42168 13.68592,-0.98718 z m -1.16317,-45.08203 c 10.86412,-3.18718 14.45229,-13.5359 7.34637,-21.18782 -3.46425,-3.73042 -12.77019,-5.78452 -23.83774,-5.26168 l -4.66931,0.22059 0,13.98064 0,13.98064 8.85559,-0.36021 c 4.87979,-0.19848 10.40428,-0.81452 12.30509,-1.37216 z m -100.28024,70.43718 c -0.4137,-0.51414 -0.77818,-4.69128 -0.88392,-10.13036 l -0.17996,-9.25547 -13.20289,-0.1149 c -15.55403,-0.13539 -21.30461,-1.07681 -28.33792,-4.63918 -4.76775,-2.41486 -10.839688,-7.69686 -14.881294,-12.9453 l -1.864175,-2.42081 4.397139,-8.87204 c 2.418432,-4.87963 5.05764,-10.49588 5.86493,-12.48055 l 1.46778,-3.6085 2.50633,4.93707 c 5.134,10.11316 10.31995,14.99375 17.58478,16.54933 1.85156,0.39646 8.41336,0.62868 14.88804,0.52689 l 11.57728,-0.18202 0.17996,-9.25547 c 0.18097,-9.30773 0.58836,-11.00523 2.64123,-11.00523 1.32029,0 30.9911,30.53735 30.9911,31.89621 0,1.35132 -29.687,31.87522 -31.00127,31.87522 -0.57375,0 -1.35997,-0.3937 -1.74714,-0.87489 z m 271.7864,0 c -0.41369,-0.51414 -0.77817,-4.69128 -0.88391,-10.13036 l -0.17996,-9.25547 -13.20289,-0.1149 c -15.55403,-0.13539 -21.30461,-1.07681 -28.33792,-4.63918 -4.76774,-2.41486 -10.83968,-7.69686 -14.88129,-12.9453 l -1.86417,-2.42081 4.39713,-8.87204 c 2.41843,-4.87963 5.05765,-10.49588 5.86494,-12.48055 l 1.46778,-3.6085 2.50632,4.93707 c 5.134,10.11316 10.31996,14.99375 17.58478,16.54933 1.85156,0.39646 8.41336,0.62868 14.88804,0.52689 l 11.57728,-0.18202 0.17996,-9.25547 c 0.18097,-9.30773 0.58836,-11.00523 2.64123,-11.00523 1.32029,0 30.9911,30.53735 30.9911,31.89621 0,1.35132 -29.687,31.87522 -31.00127,31.87522 -0.57376,0 -1.35997,-0.3937 -1.74715,-0.87489 z M 25.910049,939.14362 c -1.107885,-1.14269 -1.078889,-20.03679 0.0322,-20.98267 0.470963,-0.40093 6.150533,-0.7863 13.685927,-0.92861 11.807702,-0.22299 13.159994,-0.37205 16.231052,-1.78902 7.02006,-3.23901 11.721418,-10.28668 20.495926,-30.72487 8.932738,-20.80676 12.457369,-27.01163 19.907056,-35.04502 5.38618,-5.80818 9.26619,-8.52595 15.82089,-11.08181 4.70991,-1.83651 5.23169,-1.89254 20.93142,-2.24753 l 16.10108,-0.36403 0.17996,-9.25548 c 0.18097,-9.30773 0.58836,-11.00524 2.64123,-11.00524 1.32029,0 30.9911,30.53735 30.9911,31.8962 0,1.35133 -29.687,31.87523 -31.00127,31.87523 -2.04183,0 -2.45031,-1.70856 -2.63106,-11.00524 l -0.17996,-9.25549 -13.84694,0 -13.84693,0 -3.68035,1.86409 c -6.91599,3.50293 -10.93893,9.658 -19.839213,30.35378 -9.26787,21.55054 -13.239906,28.38863 -21.233917,36.55539 -5.45639,5.5743 -11.441088,9.05064 -18.725979,10.87741 -5.359126,1.34383 -30.781924,1.55252 -32.032224,0.26291 z m 271.786421,0 c -1.10789,-1.14269 -1.07889,-20.03679 0.0322,-20.98267 0.47097,-0.40093 6.15053,-0.7863 13.68593,-0.92861 11.80769,-0.22299 13.15998,-0.37205 16.23105,-1.78902 7.02006,-3.23901 11.72141,-10.28668 20.49592,-30.72487 8.93274,-20.80676 12.45737,-27.01163 19.90706,-35.04502 5.38617,-5.80818 9.26618,-8.52595 15.82087,-11.08181 4.70992,-1.83651 5.2317,-1.89254 20.93142,-2.24753 l 16.10109,-0.36403 0.17996,-9.25548 c 0.18097,-9.30773 0.58836,-11.00524 2.64122,-11.00524 1.3203,0 30.99111,30.53735 30.99111,31.8962 0,0 -29.68701,31.87523 -31.00127,31.87523 -2.04183,0 -2.45031,-1.70856 -2.63106,-11.00524 l -0.17996,-9.25549 -13.84694,0 -13.84694,0 -3.68034,1.86409 c -6.91599,3.50293 -10.93893,9.658 -19.83921,30.35378 -9.26787,21.55054 -13.2399,28.38863 -21.23391,36.55539 -5.4564,5.5743 -11.44109,9.05064 -18.72598,10.87741 -5.35913,1.34383 -30.78192,1.55252 -32.03222,0.26291 z M 70.173001,877.59274 c -4.815849,-9.3896 -8.780947,-14.06483 -14.117788,-16.64623 -3.377532,-1.63369 -4.158674,-1.72605 -16.427035,-1.9422 -7.560473,-0.13321 -13.213399,-0.51002 -13.685927,-0.9123 -1.245343,-1.06017 -1.129473,-20.01087 0.128938,-21.08807 0.687039,-0.58812 4.901635,-0.73764 15.940079,-0.56548 14.360279,0.22397 15.210668,0.31049 19.759668,2.0104 7.418017,2.77204 14.339581,7.97826 19.455354,14.63382 l 2.423253,3.15261 -2.516407,4.48667 c -1.384024,2.46765 -4.064598,7.9587 -5.956844,12.2023 l -3.440436,7.71564 z m 271.786419,0 c -4.81585,-9.3896 -8.78095,-14.06483 -14.11779,-16.64623 -3.37753,-1.63369 -4.15867,-1.72605 -16.42703,-1.9422 -7.56047,-0.13321 -13.21341,-0.51002 -13.68593,-0.9123 -1.24534,-1.06017 -1.12947,-20.01087 0.12893,-21.08807 0.68705,-0.58812 4.90164,-0.73764 15.94009,-0.56548 14.36027,0.22397 15.21066,0.31049 19.75967,2.0104 7.41801,2.77204 14.33957,7.97826 19.45534,14.63382 l 2.42325,3.15261 -2.5164,4.48667 c -1.38402,2.46765 -4.06459,7.9587 -5.95685,12.2023 l -3.44043,7.71564 z"
       id="path3050"
       inkscape:connector-curvature="0"
       sodipodi:nodetypes="ccccscscsssscccccccccccccccccccssscsssscccccccssccccccssssscccssssscccsscscssscsscssscssssccscssscsscssscsssscsssssssscssssscccssssssssssssscssssscccssssssssssssscsscssssssssscsscs" />
  </g>
</svg>
